<?xml version="1.0" encoding="UTF-8" standalone="no"?>
<!-- Creator: CorelDRAW 2021.5 (Evaluation Version) -->

<svg
   xml:space="preserve"
   width="4942.0298"
   height="2630.7915"
   version="1.1"
   style="clip-rule:evenodd;fill-rule:evenodd;image-rendering:optimizeQuality;shape-rendering:geometricPrecision;text-rendering:geometricPrecision"
   viewBox="0 0 4942.0298 2630.7915"
   id="svg16"
   sodipodi:docname="mouth1.svg"
   inkscape:version="1.2.1 (9c6d41e410, 2022-07-14)"
   xmlns:inkscape="http://www.inkscape.org/namespaces/inkscape"
   xmlns:sodipodi="http://sodipodi.sourceforge.net/DTD/sodipodi-0.dtd"
   xmlns="http://www.w3.org/2000/svg"
   xmlns:svg="http://www.w3.org/2000/svg"><sodipodi:namedview
   id="namedview18"
   pagecolor="#ffffff"
   bordercolor="#000000"
   borderopacity="0.25"
   inkscape:showpageshadow="2"
   inkscape:pageopacity="0.0"
   inkscape:pagecheckerboard="0"
   inkscape:deskcolor="#d1d1d1"
   showgrid="false"
   inkscape:zoom="0.094588235"
   inkscape:cx="2135.5721"
   inkscape:cy="1305.6592"
   inkscape:window-width="1920"
   inkscape:window-height="991"
   inkscape:window-x="-9"
   inkscape:window-y="-9"
   inkscape:window-maximized="1"
   inkscape:current-layer="Layer_x0020_1" />
 <defs
   id="defs4">
  <style
   type="text/css"
   id="style2">
   <![CDATA[
    .str0 {stroke:#910A0A;stroke-width:41.67;stroke-miterlimit:2.61313}
    .str1 {stroke:#910A0A;stroke-width:6.94;stroke-miterlimit:2.61313}
    .fil1 {fill:#BF0B0B}
    .fil0 {fill:#D93838}
    .fil2 {fill:white}
   ]]>
  </style>
 </defs>
 <g
   id="Layer_x0020_1"
   inkscape:label="Layer 1"
   inkscape:groupmode="layer"
   transform="translate(-3363.205,-2949.3034)">
  <metadata
   id="CorelCorpID_0Corel-Layer" />
  <path
   class="fil0 str0"
   d="m 5813.97,3078.71 c 1593.64,0 2470.43,-386.31 2470.43,298.68 0,684.98 -876.79,2181.87 -2470.43,2181.87 -1593.64,0 -2429.93,-1446.27 -2429.93,-2131.25 0,-684.98 836.29,-349.3 2429.93,-349.3 z"
   id="path7" />
  <path
   class="fil1"
   d="m 5813.97,5539.26 c 633.02,0 1091.27,-235.34 1311.61,-388.83 -140.9,-288.49 -674.55,-645.28 -1307.57,-645.28 -633.02,0 -1271.08,364.19 -1343.69,632.86 277.93,176.03 706.63,401.25 1339.65,401.25 z"
   id="path9" />
  <polygon
   class="fil2 str1"
   points="6834.72,3776.66 7169.25,3023.36 6534.78,3074.09 "
   id="polygon11" />
  <polygon
   class="fil2 str1"
   points="4807.26,3781.04 4472.69,3036.85 5107.2,3078.47 "
   id="polygon13" />
 </g>
</svg>
