<?xml version="1.0" encoding="UTF-8" standalone="no"?>
<!-- Creator: CorelDRAW 2021.5 (Evaluation Version) -->

<svg
   xml:space="preserve"
   width="5583.0693"
   height="1613.5033"
   version="1.1"
   style="clip-rule:evenodd;fill-rule:evenodd;image-rendering:optimizeQuality;shape-rendering:geometricPrecision;text-rendering:geometricPrecision"
   viewBox="0 0 5583.0693 1613.5033"
   id="svg14"
   sodipodi:docname="mouth3.svg"
   inkscape:version="1.2.1 (9c6d41e410, 2022-07-14)"
   xmlns:inkscape="http://www.inkscape.org/namespaces/inkscape"
   xmlns:sodipodi="http://sodipodi.sourceforge.net/DTD/sodipodi-0.dtd"
   xmlns="http://www.w3.org/2000/svg"
   xmlns:svg="http://www.w3.org/2000/svg"><sodipodi:namedview
   id="namedview16"
   pagecolor="#ffffff"
   bordercolor="#000000"
   borderopacity="0.25"
   inkscape:showpageshadow="2"
   inkscape:pageopacity="0.0"
   inkscape:pagecheckerboard="0"
   inkscape:deskcolor="#d1d1d1"
   showgrid="false"
   inkscape:zoom="0.094588235"
   inkscape:cx="2621.8905"
   inkscape:cy="882.77363"
   inkscape:window-width="1920"
   inkscape:window-height="991"
   inkscape:window-x="-9"
   inkscape:window-y="-9"
   inkscape:window-maximized="1"
   inkscape:current-layer="Layer_x0020_1" />
 <defs
   id="defs4">
  <style
   type="text/css"
   id="style2">
   <![CDATA[
    .str2 {stroke:black;stroke-width:41.67;stroke-miterlimit:2.61313}
    .str0 {stroke:#DB6DB6;stroke-width:41.67;stroke-miterlimit:2.61313}
    .str1 {stroke:#DB6DB6;stroke-width:13.89;stroke-miterlimit:2.61313}
    .fil1 {fill:none}
    .fil0 {fill:#FAA5DE}
   ]]>
  </style>
 </defs>
 <g
   id="Layer_x0020_1"
   inkscape:label="Layer 1"
   inkscape:groupmode="layer"
   transform="translate(-2875.4261,-3368.1517)">
  <metadata
   id="CorelCorpID_0Corel-Layer" />
  <path
   class="fil0 str0"
   d="m 5649.13,3401.69 c 66.68,92.92 209.75,234.88 385.4,392.16 45.47,129.09 94.47,308.38 94.47,506.75 0,501.11 -205.08,660.22 -454.6,660.22 -249.52,0 -519.19,-150.7 -519.19,-651.8 0,-224.54 57.41,-362.35 112.15,-507.97 137.98,-134.83 300.78,-306.35 381.77,-399.36 z"
   id="path7" />
  <path
   class="fil1 str1"
   d="m 5647.01,3404.13 c -5.17,216.92 -46.32,485.86 -40.15,747.26 5.16,218.89 6.61,292.84 34.57,474.5"
   id="path9" />
  <path
   class="fil1 str2"
   d="m 2893.33,3527.13 c 211.54,355.43 861.07,796.76 1381.75,800.09 480.89,3.07 1130.95,-617.73 1371.39,-923.8 217.52,286.38 857.21,844.53 1323.75,847.51 564.93,3.61 992.97,-133.05 1472.02,-730.56"
   id="path11" />
 </g>
</svg>
