<?xml version="1.0" encoding="UTF-8" standalone="no"?>
<!-- Creator: CorelDRAW 2021.5 (Evaluation Version) -->

<svg
   xml:space="preserve"
   width="4602.3745"
   height="1922.7854"
   version="1.1"
   style="clip-rule:evenodd;fill-rule:evenodd;image-rendering:optimizeQuality;shape-rendering:geometricPrecision;text-rendering:geometricPrecision"
   viewBox="0 0 4602.3745 1922.7854"
   id="svg12"
   sodipodi:docname="mouth4.svg"
   inkscape:version="1.2.1 (9c6d41e410, 2022-07-14)"
   xmlns:inkscape="http://www.inkscape.org/namespaces/inkscape"
   xmlns:sodipodi="http://sodipodi.sourceforge.net/DTD/sodipodi-0.dtd"
   xmlns="http://www.w3.org/2000/svg"
   xmlns:svg="http://www.w3.org/2000/svg"><sodipodi:namedview
   id="namedview14"
   pagecolor="#ffffff"
   bordercolor="#000000"
   borderopacity="0.25"
   inkscape:showpageshadow="2"
   inkscape:pageopacity="0.0"
   inkscape:pagecheckerboard="0"
   inkscape:deskcolor="#d1d1d1"
   showgrid="false"
   inkscape:zoom="0.094588235"
   inkscape:cx="2029.8507"
   inkscape:cy="1263.3706"
   inkscape:window-width="1920"
   inkscape:window-height="991"
   inkscape:window-x="-9"
   inkscape:window-y="-9"
   inkscape:window-maximized="1"
   inkscape:current-layer="Layer_x0020_1" />
 <defs
   id="defs4">
  <style
   type="text/css"
   id="style2">
   <![CDATA[
    .str0 {stroke:#A10000;stroke-width:41.67;stroke-miterlimit:2.61313}
    .fil0 {fill:#E60000}
   ]]>
  </style>
 </defs>
 <g
   id="Layer_x0020_1"
   inkscape:label="Layer 1"
   inkscape:groupmode="layer"
   transform="translate(-3463.965,-2995.8496)">
  <metadata
   id="CorelCorpID_0Corel-Layer" />
  <path
   class="fil0 str0"
   d="m 5761.76,3130.22 c 488.6,6.2 466.14,-132.59 864.81,-96.19 761.06,69.5 1418.11,586.15 1418.88,844.94 -475.24,61.29 -987.36,-14.75 -2318.45,-100.88 -1318.05,90.7 -1906.26,142.59 -2242.2,29.37 0,-289.9 568.1,-699.95 1452.49,-785.59 344.49,-33.35 425.35,103.29 824.46,108.35 z"
   id="path7" />
  <path
   class="fil0 str0"
   d="m 8045.46,3878.97 c 0,372.05 -813.71,1018.83 -2234.78,1018.83 -1421.07,0 -2325.87,-718.29 -2325.87,-1090.34 220.08,114.59 1230.74,45.25 2242.2,-29.37 983.27,59.11 1990.76,169.89 2318.45,100.88 z"
   id="path9" />
 </g>
</svg>
