<?xml version="1.0" encoding="UTF-8" standalone="no"?>
<!-- Creator: CorelDRAW 2021.5 (Evaluation Version) -->

<svg
   xml:space="preserve"
   width="8221.54"
   height="1717.4301"
   version="1.1"
   style="clip-rule:evenodd;fill-rule:evenodd;image-rendering:optimizeQuality;shape-rendering:geometricPrecision;text-rendering:geometricPrecision"
   viewBox="0 0 8221.54 1717.4301"
   id="svg18"
   sodipodi:docname="eyes2.svg"
   inkscape:version="1.2.1 (9c6d41e410, 2022-07-14)"
   xmlns:inkscape="http://www.inkscape.org/namespaces/inkscape"
   xmlns:sodipodi="http://sodipodi.sourceforge.net/DTD/sodipodi-0.dtd"
   xmlns="http://www.w3.org/2000/svg"
   xmlns:svg="http://www.w3.org/2000/svg"><sodipodi:namedview
   id="namedview20"
   pagecolor="#ffffff"
   bordercolor="#000000"
   borderopacity="0.25"
   inkscape:showpageshadow="2"
   inkscape:pageopacity="0.0"
   inkscape:pagecheckerboard="0"
   inkscape:deskcolor="#d1d1d1"
   showgrid="false"
   inkscape:zoom="0.094588235"
   inkscape:cx="4070.2736"
   inkscape:cy="925.06219"
   inkscape:window-width="1920"
   inkscape:window-height="991"
   inkscape:window-x="-9"
   inkscape:window-y="-9"
   inkscape:window-maximized="1"
   inkscape:current-layer="Layer_x0020_1" />
 <defs
   id="defs4">
  <style
   type="text/css"
   id="style2">
   <![CDATA[
    .str1 {stroke:#288ABF;stroke-width:41.67;stroke-miterlimit:2.61313}
    .str0 {stroke:#6E6E6E;stroke-width:41.67;stroke-miterlimit:2.61313}
    .str2 {stroke:#DE2A2A;stroke-width:41.67;stroke-miterlimit:2.61313}
    .fil1 {fill:#5AC2FA}
    .fil2 {fill:#FC5B5B}
    .fil0 {fill:white}
   ]]>
  </style>
 </defs>
 <g
   id="Layer_x0020_1"
   inkscape:label="Layer 1"
   inkscape:groupmode="layer"
   transform="translate(-1423.8549,-3325.945)">
  <metadata
   id="CorelCorpID_0Corel-Layer" />
  <rect
   class="fil0 str0"
   x="1444.6899"
   y="3346.9199"
   width="8179.8701"
   height="254.69"
   rx="19.91"
   ry="20"
   id="rect7" />
  <path
   class="fil0 str0"
   d="m 2012.32,3346.92 h 3091.8 c 11,0 20,9 20,20 v 1635.62 c 0,11 -9,20 -20,20 h -3041.8 c -27.5,0 -50,-22.5 -50,-50 z"
   id="path9" />
  <path
   class="fil0 str0"
   d="m 5994.69,3346.78 h 3001.17 c 16.5,0 30,13.5 30,30 V 4992.4 c 0,16.5 -13.5,30 -30,30 H 6044.69 c -27.5,0 -50,-22.5 -50,-50 z"
   id="path11" />
  <path
   class="fil1 str1"
   d="m 2479.74,3601.61 h 2180.64 c 27.5,0 50,22.5 50,50 v 1055.72 c 0,27.5 -22.5,50 -50,50 H 2429.74 V 3651.61 c 0,-27.5 22.5,-50 50,-50 z"
   id="path13" />
  <rect
   class="fil2 str2"
   x="6372.71"
   y="3601.47"
   width="2280.6399"
   height="1155.72"
   rx="42.98"
   ry="50"
   id="rect15" />
 </g>
</svg>
