<?xml version="1.0" encoding="UTF-8" standalone="no"?>
<!-- Creator: CorelDRAW 2021.5 (Evaluation Version) -->

<svg
   xml:space="preserve"
   width="8.8441896in"
   height="5.0555482in"
   version="1.1"
   style="clip-rule:evenodd;fill-rule:evenodd;image-rendering:optimizeQuality;shape-rendering:geometricPrecision;text-rendering:geometricPrecision"
   viewBox="0 0 8844.1896 5055.5482"
   id="svg16"
   sodipodi:docname="nose1.svg"
   inkscape:version="1.2.1 (9c6d41e410, 2022-07-14)"
   xmlns:inkscape="http://www.inkscape.org/namespaces/inkscape"
   xmlns:sodipodi="http://sodipodi.sourceforge.net/DTD/sodipodi-0.dtd"
   xmlns="http://www.w3.org/2000/svg"
   xmlns:svg="http://www.w3.org/2000/svg"><sodipodi:namedview
   id="namedview18"
   pagecolor="#ffffff"
   bordercolor="#000000"
   borderopacity="0.25"
   inkscape:showpageshadow="2"
   inkscape:pageopacity="0.0"
   inkscape:pagecheckerboard="0"
   inkscape:deskcolor="#d1d1d1"
   inkscape:document-units="in"
   showgrid="false"
   inkscape:zoom="0.98529412"
   inkscape:cx="405.97015"
   inkscape:cy="267.43284"
   inkscape:window-width="1920"
   inkscape:window-height="991"
   inkscape:window-x="-9"
   inkscape:window-y="-9"
   inkscape:window-maximized="1"
   inkscape:current-layer="Layer_x0020_1" />
 <defs
   id="defs4">
  <style
   type="text/css"
   id="style2">
   <![CDATA[
    .str0 {stroke:#AD7300;stroke-width:41.67;stroke-miterlimit:2.61313}
    .fil1 {fill:none}
    .fil2 {fill:#AD7300}
    .fil0 {fill:#FFCC00}
   ]]>
  </style>
 </defs>
 <g
   id="Layer_x0020_1"
   inkscape:label="Layer 1"
   inkscape:groupmode="layer"
   transform="translate(-1269.215,-1472.775)">
  <metadata
   id="CorelCorpID_0Corel-Layer" />
  <path
   class="fil0 str0"
   d="m 5691.31,1493.61 c 996.34,0 1223.12,1277.04 1960.8,1679.39 1062.02,579.27 2440.46,459.49 2440.46,1493.61 0,2503.67 -8802.52,2404.84 -8802.52,0 0,-834.34 1658.1,-1035.84 2388.46,-1602.24 803.65,-623.23 739.37,-1570.76 2012.8,-1570.76 z"
   id="path7" />
  <path
   class="fil1 str0"
   d="m 1337.65,4964.51 c 1380.98,447.76 2975.38,857.22 4394.8,862.71 1458.98,5.63 3094.86,-468.33 4330.08,-913.38"
   id="path9" />
  <ellipse
   class="fil2"
   transform="matrix(1.35269,0.313983,-0.313983,1.35269,4783.57,3299.9)"
   rx="98.910004"
   ry="151.28"
   id="ellipse11"
   cx="0"
   cy="0" />
  <ellipse
   class="fil2"
   transform="matrix(-1.35269,0.313983,0.313983,1.35269,6265.74,3299.9)"
   rx="98.910004"
   ry="151.28"
   id="ellipse13"
   cx="0"
   cy="0" />
 </g>
</svg>
