<?xml version="1.0" encoding="UTF-8" standalone="no"?>
<!-- Creator: CorelDRAW 2021.5 (Evaluation Version) -->

<svg
   xml:space="preserve"
   width="2909.74"
   height="3264.4399"
   version="1.1"
   style="clip-rule:evenodd;fill-rule:evenodd;image-rendering:optimizeQuality;shape-rendering:geometricPrecision;text-rendering:geometricPrecision"
   viewBox="0 0 2909.74 3264.4399"
   id="svg18"
   sodipodi:docname="nose6.svg"
   inkscape:version="1.2.1 (9c6d41e410, 2022-07-14)"
   xmlns:inkscape="http://www.inkscape.org/namespaces/inkscape"
   xmlns:sodipodi="http://sodipodi.sourceforge.net/DTD/sodipodi-0.dtd"
   xmlns="http://www.w3.org/2000/svg"
   xmlns:svg="http://www.w3.org/2000/svg"><sodipodi:namedview
   id="namedview20"
   pagecolor="#ffffff"
   bordercolor="#000000"
   borderopacity="0.25"
   inkscape:showpageshadow="2"
   inkscape:pageopacity="0.0"
   inkscape:pagecheckerboard="0"
   inkscape:deskcolor="#d1d1d1"
   showgrid="false"
   inkscape:zoom="0.094588235"
   inkscape:cx="1606.9652"
   inkscape:cy="1548.8184"
   inkscape:window-width="1920"
   inkscape:window-height="991"
   inkscape:window-x="-9"
   inkscape:window-y="-9"
   inkscape:window-maximized="1"
   inkscape:current-layer="Layer_x0020_1" />
 <defs
   id="defs4">
  <style
   type="text/css"
   id="style2">
   <![CDATA[
    .str0 {stroke:black;stroke-width:41.67;stroke-miterlimit:2.61313}
    .str2 {stroke:#786E05;stroke-width:20.83;stroke-miterlimit:2.61313}
    .str1 {stroke:black;stroke-width:6.94;stroke-miterlimit:2.61313}
    .fil1 {fill:black}
    .fil0 {fill:#451F03}
    .fil2 {fill:#EBDB28}
   ]]>
  </style>
 </defs>
 <g
   id="Layer_x0020_1"
   inkscape:label="Layer 1"
   inkscape:groupmode="layer"
   transform="translate(-3889.415,-2704.925)">
  <metadata
   id="CorelCorpID_0Corel-Layer" />
  <rect
   class="fil0 str0"
   x="3910.25"
   y="2725.76"
   width="2868.0701"
   height="3222.77"
   rx="300"
   ry="300"
   id="rect7" />
  <rect
   class="fil1 str1"
   x="4548.7202"
   y="4063.51"
   width="405.38"
   height="770.21997"
   rx="300"
   ry="414.54001"
   id="rect9" />
  <rect
   class="fil1 str1"
   x="5718.7202"
   y="4063.51"
   width="405.38"
   height="770.21997"
   rx="300"
   ry="414.54001"
   id="rect11" />
  <path
   class="fil2 str2"
   d="m 5336.78,4330.09 c 371.55,0 672.75,272.75 672.75,609.2 0,336.45 -301.2,609.2 -672.75,609.2 -371.55,0 -672.75,-272.75 -672.75,-609.2 0,-336.45 301.2,-609.2 672.75,-609.2 z m 0.41,136.63 c 282.95,0 512.32,212.18 512.32,473.91 0,261.74 -229.37,473.91 -512.32,473.91 -282.95,0 -512.33,-212.18 -512.33,-473.91 0,-261.74 229.38,-473.91 512.33,-473.91 z"
   id="path13" />
  <rect
   class="fil0"
   x="4954.1001"
   y="4140.27"
   width="761.47998"
   height="776.92999"
   id="rect15" />
 </g>
</svg>
