<?xml version="1.0" encoding="UTF-8" standalone="no"?>
<!-- Creator: CorelDRAW 2021.5 (Evaluation Version) -->

<svg
   xml:space="preserve"
   width="2.8998199in"
   height="1.3052171in"
   version="1.1"
   style="clip-rule:evenodd;fill-rule:evenodd;image-rendering:optimizeQuality;shape-rendering:geometricPrecision;text-rendering:geometricPrecision"
   viewBox="0 0 2899.8199 1305.2171"
   id="svg14"
   sodipodi:docname="nose4.svg"
   inkscape:version="1.2.1 (9c6d41e410, 2022-07-14)"
   xmlns:inkscape="http://www.inkscape.org/namespaces/inkscape"
   xmlns:sodipodi="http://sodipodi.sourceforge.net/DTD/sodipodi-0.dtd"
   xmlns="http://www.w3.org/2000/svg"
   xmlns:svg="http://www.w3.org/2000/svg"><sodipodi:namedview
   id="namedview16"
   pagecolor="#ffffff"
   bordercolor="#000000"
   borderopacity="0.25"
   inkscape:showpageshadow="2"
   inkscape:pageopacity="0.0"
   inkscape:pagecheckerboard="0"
   inkscape:deskcolor="#d1d1d1"
   inkscape:document-units="in"
   showgrid="false"
   inkscape:zoom="0.98529412"
   inkscape:cx="161.37313"
   inkscape:cy="113.16418"
   inkscape:window-width="1920"
   inkscape:window-height="991"
   inkscape:window-x="-9"
   inkscape:window-y="-9"
   inkscape:window-maximized="1"
   inkscape:current-layer="Layer_x0020_1" />
 <defs
   id="defs4">
  <style
   type="text/css"
   id="style2">
   <![CDATA[
    .str1 {stroke:#291404;stroke-width:41.67;stroke-miterlimit:2.61313}
    .str0 {stroke:#65CF83;stroke-width:20.83;stroke-miterlimit:2.61313}
    .fil1 {fill:#471F01}
    .fil0 {fill:#6ADE8B}
   ]]>
  </style>
 </defs>
 <g
   id="Layer_x0020_1"
   inkscape:label="Layer 1"
   inkscape:groupmode="layer"
   transform="translate(-3820.1151,-3081.2251)">
  <metadata
   id="CorelCorpID_0Corel-Layer" />
  <path
   class="fil0 str0"
   d="m 6287.52,3870.35 c 35.6,0 113.67,-20.69 146.7,-31.7 25.91,46.06 -12.66,211.91 -12.66,284.35 0,95.04 -23.12,212.01 -59.14,191.07 -36.93,-21.47 -15.68,-44.76 -46.36,-36.68 -9.07,2.39 8.65,106.25 -28.54,98.26 -45.05,-9.68 -52.07,-326.29 -71.33,-346.51 -23.13,-24.28 -34.44,127.59 -42.57,140.06 -40.92,62.74 -82.97,38.52 -89.64,-33.2 -2.96,-31.81 -0.66,-51.79 -0.66,-64.54 0,-43.98 -17.81,-203.95 -7.33,-239.96 76.31,32.56 160.83,38.85 211.53,38.85 z"
   id="path7" />
  <ellipse
   class="fil1 str1"
   cx="4266.1001"
   cy="3490.25"
   rx="425.14999"
   ry="374.79999"
   id="ellipse9" />
  <ellipse
   class="fil1 str1"
   cx="6264.0601"
   cy="3485.5801"
   rx="435.04001"
   ry="383.51999"
   id="ellipse11" />
 </g>
</svg>
