<?xml version="1.0" encoding="UTF-8" standalone="no"?>
<!-- Creator: CorelDRAW 2021.5 (Evaluation Version) -->

<svg
   xml:space="preserve"
   width="6.1750302in"
   height="3.2467101in"
   version="1.1"
   style="clip-rule:evenodd;fill-rule:evenodd;image-rendering:optimizeQuality;shape-rendering:geometricPrecision;text-rendering:geometricPrecision"
   viewBox="0 0 6175.0302 3246.7101"
   id="svg14"
   sodipodi:docname="nose2.svg"
   inkscape:version="1.2.1 (9c6d41e410, 2022-07-14)"
   xmlns:inkscape="http://www.inkscape.org/namespaces/inkscape"
   xmlns:sodipodi="http://sodipodi.sourceforge.net/DTD/sodipodi-0.dtd"
   xmlns="http://www.w3.org/2000/svg"
   xmlns:svg="http://www.w3.org/2000/svg"><sodipodi:namedview
   id="namedview16"
   pagecolor="#ffffff"
   bordercolor="#000000"
   borderopacity="0.25"
   inkscape:showpageshadow="2"
   inkscape:pageopacity="0.0"
   inkscape:pagecheckerboard="0"
   inkscape:deskcolor="#d1d1d1"
   inkscape:document-units="in"
   showgrid="false"
   inkscape:zoom="0.98529412"
   inkscape:cx="295.34328"
   inkscape:cy="165.9403"
   inkscape:window-width="1920"
   inkscape:window-height="991"
   inkscape:window-x="-9"
   inkscape:window-y="-9"
   inkscape:window-maximized="1"
   inkscape:current-layer="Layer_x0020_1" />
 <defs
   id="defs4">
  <style
   type="text/css"
   id="style2">
   <![CDATA[
    .str0 {stroke:#4F2A04;stroke-width:41.67;stroke-miterlimit:2.61313}
    .fil1 {fill:#4F2A04}
    .fil0 {fill:#784008}
   ]]>
  </style>
 </defs>
 <g
   id="Layer_x0020_1"
   inkscape:label="Layer 1"
   inkscape:groupmode="layer"
   transform="translate(-2421.895,-2530.795)">
  <metadata
   id="CorelCorpID_0Corel-Layer" />
  <path
   class="fil0 str0"
   d="m 5429.47,2551.64 c 1693.68,0 3146.62,124.8 3146.62,1220.71 0,550.09 -1126.54,494.95 -1685.3,854.36 -554.43,356.62 -537.83,1129.96 -1381.38,1129.96 -853.2,0 -861.61,-749.72 -1417.52,-1113.57 -547.63,-358.43 -1649.16,-326.91 -1649.16,-870.76 0,-1095.91 1293.06,-1220.71 2986.74,-1220.71 z"
   id="path7" />
  <path
   class="fil1"
   d="m 4445.52,4324.94 c 355.93,209.7 274.18,616.77 146.65,877.23 -185.6,-259.24 -195.25,-290.43 -452.63,-526 -305.26,-174.9 -359.5,-193 -642.72,-275.67 115.95,-196.81 592.76,-285.27 948.69,-75.57 z"
   id="path9" />
  <path
   class="fil1"
   d="m 6532.49,4319.91 c -355.93,209.7 -274.18,616.77 -146.65,877.23 200.4,-252.66 170.57,-321.68 452.63,-526 280.58,-202.86 359.5,-193 642.72,-275.67 -115.95,-196.81 -592.76,-285.27 -948.69,-75.57 z"
   id="path11" />
 </g>
</svg>
